<svg width="54" height="54" viewBox="0 0 54 54" fill="none" xmlns="http://www.w3.org/2000/svg">
<path d="M26.6667 0.333344C30.2029 0.333344 33.5943 1.7381 36.0948 4.23859C38.5952 6.73907 40 10.1305 40 13.6667C40 17.2029 38.5952 20.5943 36.0948 23.0948C33.5943 25.5953 30.2029 27 26.6667 27C23.1304 27 19.7391 25.5953 17.2386 23.0948C14.7381 20.5943 13.3333 17.2029 13.3333 13.6667C13.3333 10.1305 14.7381 6.73907 17.2386 4.23859C19.7391 1.7381 23.1304 0.333344 26.6667 0.333344ZM26.6667 33.6667C41.4 33.6667 53.3333 39.6333 53.3333 47V53.6667H0V47C0 39.6333 11.9333 33.6667 26.6667 33.6667Z" fill="#FFBF00"/>
</svg>
