<svg width="60" height="60" viewBox="0 0 60 60" fill="none" xmlns="http://www.w3.org/2000/svg">
<path fill-rule="evenodd" clip-rule="evenodd" d="M0 0H51.6667V8.33333H48.3333V3.33333H3.33333V41.6667H38.9783V45H0V0ZM50 21.6667C51.3261 21.6667 52.5978 21.1399 53.5355 20.2022C54.4732 19.2645 55 17.9927 55 16.6667C55 15.3406 54.4732 14.0688 53.5355 13.1311C52.5978 12.1934 51.3261 11.6667 50 11.6667C48.6739 11.6667 47.4021 12.1934 46.4645 13.1311C45.5268 14.0688 45 15.3406 45 16.6667C45 17.9927 45.5268 19.2645 46.4645 20.2022C47.4021 21.1399 48.6739 21.6667 50 21.6667ZM53.385 25.0167C55.55 25.0167 57.2633 25.99 58.385 27.4933C59.4333 28.9017 59.8767 30.6433 59.9767 32.2517C60.0746 33.9015 59.8499 35.5546 59.315 37.1183C58.815 38.5683 57.97 40.0683 56.6667 41.0967V57.5C56.6679 58.1281 56.4326 58.7337 56.0076 59.1962C55.5827 59.6588 54.9991 59.9444 54.3732 59.9963C53.7472 60.0482 53.1246 59.8625 52.6293 59.4762C52.134 59.09 51.8022 58.5314 51.7 57.9117L49.55 45H49.0533L46.6233 57.96C46.5079 58.5717 46.1685 59.1183 45.6715 59.493C45.1744 59.8676 44.5554 60.0434 43.9356 59.9859C43.3159 59.9283 42.7398 59.6417 42.3202 59.1819C41.9006 58.7222 41.6675 58.1225 41.6667 57.5V33.7217C41.3334 34.2294 41.0045 34.7399 40.68 35.2533L40.55 35.4583L40.5167 35.5117L40.5083 35.5267C40.2837 35.8873 39.9709 36.1848 39.5993 36.391C39.2278 36.5971 38.8099 36.7052 38.385 36.705H30.0517C29.3886 36.705 28.7527 36.4416 28.2839 35.9728C27.8151 35.5039 27.5517 34.868 27.5517 34.205C27.5517 33.542 27.8151 32.9061 28.2839 32.4372C28.7527 31.9684 29.3886 31.705 30.0517 31.705H37.0133C37.4183 31.0783 37.9517 30.265 38.5117 29.4483C39.095 28.5967 39.7383 27.695 40.3117 26.9883C40.59 26.6433 40.9017 26.2833 41.215 25.9883C41.3683 25.8433 41.5817 25.655 41.8417 25.4883C42.3005 25.1871 42.8362 25.024 43.385 25.0183L53.385 25.0167Z" fill="#FFBF00"/>
</svg>
