<svg width="23" height="22" viewBox="0 0 23 22" fill="none" xmlns="http://www.w3.org/2000/svg">
<path d="M21.5 21.0895L16.6745 16.264M16.6745 16.264C17.4999 15.4386 18.1547 14.4586 18.6014 13.3802C19.0481 12.3017 19.278 11.1458 19.278 9.97849C19.278 8.81117 19.0481 7.65528 18.6014 6.57681C18.1547 5.49835 17.4999 4.51843 16.6745 3.69301C15.8491 2.86759 14.8692 2.21283 13.7907 1.76611C12.7122 1.3194 11.5563 1.08948 10.389 1.08948C9.22169 1.08948 8.0658 1.3194 6.98734 1.76611C5.90887 2.21283 4.92895 2.86759 4.10353 3.69301C2.43652 5.36002 1.5 7.62098 1.5 9.97849C1.5 12.336 2.43652 14.597 4.10353 16.264C5.77055 17.931 8.0315 18.8675 10.389 18.8675C12.7465 18.8675 15.0075 17.931 16.6745 16.264Z" stroke="black" stroke-width="1.5" stroke-linecap="round" stroke-linejoin="round"/>
</svg>
