<svg width="65" height="56" viewBox="0 0 65 56" fill="none" xmlns="http://www.w3.org/2000/svg">
<path d="M46.3333 24H41.2613L48.1893 12C48.7197 11.0813 48.8634 9.98951 48.5889 8.96482C48.3143 7.94013 47.644 7.06646 46.7253 6.53601L36.3333 0.536012C35.4146 0.00560278 34.3228 -0.138136 33.2981 0.136416C32.2734 0.410967 31.3997 1.08132 30.8693 2.00001L20.8693 19.32C20.4462 20.052 20.2659 20.8992 20.3543 21.74C20.4427 22.5808 20.7952 23.372 21.3613 24H18.3333C17.8028 24 17.2941 24.2107 16.9191 24.5858C16.544 24.9609 16.3333 25.4696 16.3333 26C16.3333 26.5304 16.544 27.0392 16.9191 27.4142C17.2941 27.7893 17.8028 28 18.3333 28H46.3333C46.8637 28 47.3724 27.7893 47.7475 27.4142C48.1226 27.0392 48.3333 26.5304 48.3333 26C48.3333 25.4696 48.1226 24.9609 47.7475 24.5858C47.3724 24.2107 46.8637 24 46.3333 24ZM34.3333 4.00001L44.7253 10L36.6453 24H28.9733L24.3333 21.32L34.3333 4.00001ZM50.4813 16L48.1733 20H50.3333L59.3333 32H5.33328L14.3333 20H15.9573C16.0373 19.768 16.1413 19.5413 16.2693 19.32L18.1893 16H14.3333C13.7123 16 13.0998 16.1446 12.5444 16.4223C11.989 16.7 11.5059 17.1032 11.1333 17.6L1.13328 30.932C0.613994 31.6244 0.333282 32.4665 0.333282 33.332V52C0.333282 53.0609 0.75471 54.0783 1.50486 54.8284C2.255 55.5786 3.27242 56 4.33328 56H60.3333C61.3941 56 62.4116 55.5786 63.1617 54.8284C63.9119 54.0783 64.3333 53.0609 64.3333 52V33.332C64.3333 32.4665 64.0526 31.6244 63.5333 30.932L53.5333 17.6C53.176 17.1227 52.7165 16.7313 52.1884 16.4545C51.6604 16.1777 51.0771 16.0224 50.4813 16Z" fill="#000"/>
</svg>
