<?xml version="1.0" encoding="UTF-8"?>
<svg id="Calque_1" data-name="Calque 1" xmlns="http://www.w3.org/2000/svg" viewBox="0 0 1296 1296">
  <defs>
    <style>
      .cls-1, .cls-2, .cls-3 {
        stroke-width: 0px;
      }

      .cls-4 {
        letter-spacing: -.03em;
      }

      .cls-5 {
        font-family: DESIGNERRegular, DESIGNER;
        font-size: 72px;
        stroke: #000;
        stroke-miterlimit: 10;
      }

      .cls-6 {
        font-family: LEMONMILK-Light, 'LEMON MILK';
        font-size: 30px;
        font-weight: 300;
      }

      .cls-6, .cls-2 {
        fill: #fff;
      }

      .cls-7 {
        letter-spacing: -.08em;
      }

      .cls-3 {
        fill: #1c1c1c;
      }

      .cls-8 {
        letter-spacing: -.09em;
      }
    </style>
  </defs>
  <g>
    <polygon class="cls-2" points="671.64 850.23 723.63 601.55 882.78 568.46 770.9 453.43 786.66 292.71 646.42 363.62 499.89 302.17 518.79 459.74 413.22 571.47 567.64 598.4 648 852.89 671.64 850.23"/>
    <path class="cls-1" d="M665.33,792.21c9.55-71.51,22.47-153.21,34.1-224.57,40.46-7.67,87.97-16.44,128.52-23.7,0,0-4.26,11.96-4.26,11.96-10.32-11.75-30.87-35.36-41.11-47.15,0,0-40.92-47.31-40.92-47.31l-2.1-2.43.33-3.14c3.95-38.66,8.34-80.9,12.64-119.66,0,0,9.1,6.51,9.1,6.51-25.97,11.46-57.92,25.29-83.84,36.44,0,0-28.03,11.97-28.03,11.97,0,0-1.83.78-1.83.78,0,0-1.63-.76-1.63-.76-27.09-12.66-60.43-28.54-87.47-41.64-7.17-3.46-21.84-10.7-29-14.23,16.65,6.41,43.28,17,60.08,23.73,17.84,7.38,42.33,17.01,59.8,24.39,0,0-3.46.02-3.46.02,34.95-16.95,74.85-35.91,110.04-52.44,0,0,10.06-4.74,10.06-4.74-.64,7.02-2.86,33.65-3.53,41.22-2.59,29.12-5.44,60.95-8.16,89.87,0,0-1.78-5.58-1.78-5.58,26.79,30.89,63.97,73.62,90.28,104.45-43.64,7.38-93.65,15.65-137.39,22.58,0,0,4.92-4.89,4.92-4.89-13.64,69.5-29.74,149.4-45.35,218.34h0Z"/>
    <text class="cls-5" transform="translate(554.04 518.22) rotate(-6.08)"><tspan x="0" y="0">TWIN</tspan><tspan class="cls-8" x="-50.76" y="50">A</tspan><tspan class="cls-7" x="-12.46" y="50">W</tspan><tspan x="45.43" y="50">ARDS</tspan></text>
  </g>
  <g>
    <g>
      <path class="cls-3" d="M555.56,846.97h213.9c1.52,0,2.75,1.23,2.75,2.75v46.86c0,1.16-.94,2.11-2.11,2.11h-215.18c-1.16,0-2.11-.94-2.11-2.11v-46.86c0-1.52,1.23-2.75,2.75-2.75Z"/>
      <text class="cls-6" transform="translate(564.08 884.22)"><tspan x="0" y="0">1ère ÉDITION</tspan></text>
    </g>
    <g>
      <g>
        <path class="cls-3" d="M495.44,1002.79v-100.67c0-2.51,2.05-4.56,4.56-4.56h326.03c2.51,0,4.56,2.05,4.56,4.56v100.67h-335.15Z"/>
        <path class="cls-2" d="M826.03,898.06c2.24,0,4.06,1.82,4.06,4.06v100.17h-334.15v-100.17c0-2.24,1.82-4.06,4.06-4.06h326.03M826.03,897.06h-326.03c-2.79,0-5.06,2.27-5.06,5.06v101.17h336.15v-101.17c0-2.79-2.27-5.06-5.06-5.06h0Z"/>
      </g>
      <text class="cls-6" transform="translate(517.06 941.69)"><tspan x="0" y="0">Le </tspan><tspan class="cls-4" x="44.37" y="0">c</tspan><tspan x="65.6" y="0">on</tspan><tspan class="cls-4" x="116.32" y="0">c</tspan><tspan x="137.55" y="0">ours des</tspan><tspan x="66.93" y="36">TWINNERS</tspan></text>
    </g>
  </g>
</svg>